<svg xmlns="http://www.w3.org/2000/svg" width="168" height="66" viewBox="0 0 168 66">
  <defs>
    <style>
      .cls-1 {
        fill: #fff;
        fill-rule: evenodd;
      }
    </style>
  </defs>
  <path id="logo-footer.svg" class="cls-1" d="M548.029,5027.62H468.356v-61.27H631.643v50.48H634V4964H466v65.98h82.029v-2.36Zm-50.747-46.74a13.972,13.972,0,0,1,5.579,1.13,15.042,15.042,0,0,1,4.583,3.08,14.274,14.274,0,0,1,3.1,4.6,14.08,14.08,0,0,1,1.133,5.61v14.28h-5.564v-2.91a15.4,15.4,0,0,1-4.051,2.2,14.452,14.452,0,0,1-10.344-.33,14.74,14.74,0,0,1-4.564-3.08,14.587,14.587,0,0,1-3.079-4.57,13.881,13.881,0,0,1-1.135-5.59,14.1,14.1,0,0,1,1.132-5.61,14.513,14.513,0,0,1,3.073-4.6,14.715,14.715,0,0,1,4.556-3.08A13.978,13.978,0,0,1,497.282,4980.88Zm0.027,23.23a8.392,8.392,0,0,0,3.43-.71,8.991,8.991,0,0,0,4.672-4.7,8.381,8.381,0,0,0,.7-3.4,8.514,8.514,0,0,0-.7-3.45,8.991,8.991,0,0,0-4.672-4.7,8.643,8.643,0,0,0-6.861,0,8.991,8.991,0,0,0-4.672,4.7,8.514,8.514,0,0,0-.7,3.45,8.381,8.381,0,0,0,.7,3.4,8.991,8.991,0,0,0,4.672,4.7A8.386,8.386,0,0,0,497.309,5004.11Zm50.72-8.97v34.05h-5.564v-22.73a15.089,15.089,0,0,1-4.051,2.19,14.235,14.235,0,0,1-10.263-.33,14.524,14.524,0,0,1-7.616-7.64,13.933,13.933,0,0,1-1.135-5.59,13.768,13.768,0,0,1,1.135-5.57,14.657,14.657,0,0,1,3.079-4.53,14.5,14.5,0,0,1,4.537-3.08,13.67,13.67,0,0,1,5.564-1.14,13.859,13.859,0,0,1,5.59,1.14,14.357,14.357,0,0,1,7.617,7.61,14.075,14.075,0,0,1,1.107,5.57v0.05Zm-14.314,8.75a8.7,8.7,0,0,0,6.158-2.55,9,9,0,0,0,1.89-2.79,8.287,8.287,0,0,0,.7-3.38v-0.06a8.739,8.739,0,0,0-2.538-6.17,9,9,0,0,0-2.782-1.9,8.382,8.382,0,0,0-3.43-.7,8.244,8.244,0,0,0-3.376.7,9.01,9.01,0,0,0-4.672,4.69,8.271,8.271,0,0,0-.7,3.38,8.417,8.417,0,0,0,.7,3.44,8.945,8.945,0,0,0,1.89,2.79A8.7,8.7,0,0,0,533.715,5003.89Zm46.831-23.06v16.25a12.026,12.026,0,0,1-1.5,5.95,12.185,12.185,0,0,1-4.063,4.37,13.139,13.139,0,0,1-3.228,1.51,12.3,12.3,0,0,1-7.21,0,13.173,13.173,0,0,1-3.228-1.51,12.614,12.614,0,0,1-4.037-4.37,11.867,11.867,0,0,1-1.526-5.95v-16.25h5.563v16.25a6.591,6.591,0,0,0,.538,2.65,6.763,6.763,0,0,0,3.632,3.62,6.712,6.712,0,0,0,2.663.54,6.52,6.52,0,0,0,2.636-.54,7.273,7.273,0,0,0,2.179-1.46,6.665,6.665,0,0,0,1.48-2.16,6.591,6.591,0,0,0,.538-2.65v-16.25h5.564Zm22.077,0.05a13.969,13.969,0,0,1,5.579,1.13,15.042,15.042,0,0,1,4.583,3.08,14.274,14.274,0,0,1,3.1,4.6,14.08,14.08,0,0,1,1.133,5.61v14.28h-5.564v-2.91a15.386,15.386,0,0,1-4.051,2.2,14.452,14.452,0,0,1-10.344-.33,14.74,14.74,0,0,1-4.564-3.08,14.587,14.587,0,0,1-3.079-4.57,13.9,13.9,0,0,1-1.135-5.59,14.1,14.1,0,0,1,1.132-5.61,14.53,14.53,0,0,1,3.073-4.6,14.715,14.715,0,0,1,4.556-3.08A13.978,13.978,0,0,1,602.623,4980.88Zm0.027,23.23a8.388,8.388,0,0,0,3.43-.71,8.982,8.982,0,0,0,4.672-4.7,8.381,8.381,0,0,0,.7-3.4,8.514,8.514,0,0,0-.7-3.45,8.982,8.982,0,0,0-4.672-4.7,8.64,8.64,0,0,0-6.86,0,8.988,8.988,0,0,0-4.673,4.7,8.514,8.514,0,0,0-.7,3.45,8.381,8.381,0,0,0,.7,3.4,8.988,8.988,0,0,0,4.673,4.7A8.382,8.382,0,0,0,602.65,5004.11Zm-45.666,20h1.541v1.26h-1.541v4.61h-1.26v-4.61h-0.453v-1.26h0.453v-2.36a2.775,2.775,0,0,1,1.26-2.12v0.01a3,3,0,0,1,.722-0.35,2.779,2.779,0,0,1,.819-0.12v1.26a1.508,1.508,0,0,0-.6.12,1.932,1.932,0,0,0-.49.33,1.558,1.558,0,0,0-.329.49,1.5,1.5,0,0,0-.123.6v2.14Zm3.474-1.3v-1.26h1.261v1.26h-1.261Zm1.261,0.66v6.51h-1.261v-6.51h1.261Zm2.128-4.29h1.261v10.8h-1.261v-10.8Zm6.815,3.76h-1.174v7.04h-1.261v-7.04h-1.186v-1.26h1.186v-2.4h1.261v2.4h1.174v1.26Zm5.506,4.18h-2.46a2,2,0,0,0,.251.62,1.913,1.913,0,0,0,1.01.82,1.887,1.887,0,0,0,.672.12,1.965,1.965,0,0,0,.8-0.17,2.2,2.2,0,0,0,.655-0.48h1.48a2.215,2.215,0,0,1-.178.35,3.372,3.372,0,0,1-1.327,1.22,3.043,3.043,0,0,1-1.432.34,3.3,3.3,0,0,1-1.259-.25,3.2,3.2,0,0,1-1.719-1.72,3.288,3.288,0,0,1,0-2.52,3.225,3.225,0,0,1,.69-1.03,3.346,3.346,0,0,1,1.029-.69,3.121,3.121,0,0,1,1.259-.25,3.237,3.237,0,0,1,3.23,3.23,2.119,2.119,0,0,1-.037.41h-2.666Zm-0.527-2.38a1.877,1.877,0,0,0-1.07.31,1.993,1.993,0,0,0-.716.81h3.573a1.744,1.744,0,0,1-.116-0.19q-0.056-.09-0.117-0.18a1.9,1.9,0,0,0-.685-0.55A1.976,1.976,0,0,0,575.641,5024.74Zm9.323-.79a2.67,2.67,0,0,1,.71.68l-0.71.56-0.269.22a1.558,1.558,0,0,0-.544-0.49,1.561,1.561,0,0,0-1.328-.06,1.536,1.536,0,0,0-.819.82,1.5,1.5,0,0,0-.123.6v3.7h-1.26v-6.5h1.26v0.47a2.669,2.669,0,0,1,.722-0.35,2.862,2.862,0,0,1,1.64,0A2.677,2.677,0,0,1,584.964,5023.95Zm2.41,4.68a0.614,0.614,0,0,1,.459.19,0.654,0.654,0,0,1,0,.92,0.649,0.649,0,0,1-.918,0,0.654,0.654,0,0,1,0-.92A0.612,0.612,0,0,1,587.374,5028.63Zm5.628,0.04a1.883,1.883,0,0,0,.881-0.21,2.022,2.022,0,0,0,.673-0.55l0.991,0.77a3.3,3.3,0,0,1-1.1.91,3.2,3.2,0,0,1-1.444.34,3.1,3.1,0,0,1-1.248-.26,3.054,3.054,0,0,1-1.031-.69,3.171,3.171,0,0,1-.7-1.02,3.2,3.2,0,0,1-.253-1.26,3.121,3.121,0,0,1,.253-1.25,3.214,3.214,0,0,1,.7-1.03,3.379,3.379,0,0,1,1.031-.69,3.092,3.092,0,0,1,1.248-.25,3.188,3.188,0,0,1,1.444.33,3.1,3.1,0,0,1,1.1.92l-0.991.77a1.935,1.935,0,0,0-.673-0.56,2.005,2.005,0,0,0-.881-0.2,1.976,1.976,0,0,0-.765.15,1.922,1.922,0,0,0-.63.42,1.987,1.987,0,0,0-.422.63,1.911,1.911,0,0,0-.153.76,1.947,1.947,0,0,0,.153.76,2.06,2.06,0,0,0,.422.62,2.12,2.12,0,0,0,.63.43A1.984,1.984,0,0,0,593,5028.67Zm7.512-5.2a3.122,3.122,0,0,1,1.26.25,3.023,3.023,0,0,1,1.028.69,3.106,3.106,0,0,1,.691,1.03,3.15,3.15,0,0,1,.251,1.26,3.22,3.22,0,0,1-.251,1.26,3.168,3.168,0,0,1-.691,1.02,3.023,3.023,0,0,1-1.028.69,3.183,3.183,0,0,1-2.52,0,3.023,3.023,0,0,1-1.028-.69,3.168,3.168,0,0,1-.691-1.02,3.238,3.238,0,0,1-.251-1.26,3.167,3.167,0,0,1,.251-1.26,3.106,3.106,0,0,1,.691-1.03,3.023,3.023,0,0,1,1.028-.69A3.126,3.126,0,0,1,600.514,5023.47Zm0.006,5.2a1.8,1.8,0,0,0,.762-0.16,1.928,1.928,0,0,0,.629-0.42,1.981,1.981,0,0,0,.42-0.63,1.989,1.989,0,0,0,0-1.53,1.981,1.981,0,0,0-.42-0.63,1.928,1.928,0,0,0-.629-0.42,2.01,2.01,0,0,0-1.524,0,1.9,1.9,0,0,0-.628.42,2.052,2.052,0,0,0-.427.63,1.92,1.92,0,0,0,0,1.53,2.052,2.052,0,0,0,.427.63,1.9,1.9,0,0,0,.628.42A1.8,1.8,0,0,0,600.52,5028.67Zm13.733-4.76a2.764,2.764,0,0,1,.918.99,2.8,2.8,0,0,1,.343,1.36v3.68h-1.261v-3.68a1.43,1.43,0,0,0-.122-0.6,1.555,1.555,0,0,0-.336-0.5,1.82,1.82,0,0,0-.5-0.34,1.511,1.511,0,0,0-.6-0.12,1.556,1.556,0,0,0-.606.12,1.792,1.792,0,0,0-.5.34,1.555,1.555,0,0,0-.336.5,1.446,1.446,0,0,0-.122.6v3.68h-1.26v-3.68a1.431,1.431,0,0,0-.123-0.6,1.558,1.558,0,0,0-.337-0.5,1.8,1.8,0,0,0-.5-0.34,1.508,1.508,0,0,0-.6-0.12,1.56,1.56,0,0,0-.606.12,1.772,1.772,0,0,0-.5.34,1.542,1.542,0,0,0-.337.5,1.43,1.43,0,0,0-.122.6v3.68h-1.26v-6.5h1.26v0.47a3.2,3.2,0,0,1,.74-0.35,2.9,2.9,0,0,1,1.652,0,2.987,2.987,0,0,1,.728.35,2.717,2.717,0,0,1,.636.58,2.915,2.915,0,0,1,.624-0.58,3.2,3.2,0,0,1,.74-0.35,2.9,2.9,0,0,1,1.651,0A2.952,2.952,0,0,1,614.253,5023.91Zm3.658,4.72a0.612,0.612,0,0,1,.459.19,0.652,0.652,0,0,1,0,.92,0.648,0.648,0,0,1-.917,0,0.652,0.652,0,0,1,0-.92A0.61,0.61,0,0,1,617.911,5028.63Zm8.014-5.14v3.66a2.675,2.675,0,0,1-.34,1.34,2.838,2.838,0,0,1-.92,1,3.223,3.223,0,0,1-.731.34,2.838,2.838,0,0,1-1.633,0,3.211,3.211,0,0,1-.732-0.34,2.957,2.957,0,0,1-.914-1,2.638,2.638,0,0,1-.345-1.34v-3.66h1.259v3.66a1.515,1.515,0,0,0,.122.6,1.575,1.575,0,0,0,.329.49,1.5,1.5,0,0,0,.494.33,1.545,1.545,0,0,0,.6.12,1.5,1.5,0,0,0,.6-0.12,1.6,1.6,0,0,0,.494-0.33,1.521,1.521,0,0,0,.457-1.09v-3.66h1.26Zm4.814-.01a3,3,0,0,1,1.264.26,3.387,3.387,0,0,1,1.038.69,3.3,3.3,0,0,1,.7,1.04,3.221,3.221,0,0,1,.257,1.27v3.17h-1.261v-0.59a3.441,3.441,0,0,1-.917.5,3.257,3.257,0,0,1-2.343-.08,3.2,3.2,0,0,1-1.731-1.73,3.134,3.134,0,0,1-.257-1.27,3.22,3.22,0,0,1,.256-1.27,3.354,3.354,0,0,1,.7-1.04,3.312,3.312,0,0,1,1.032-.69A3,3,0,0,1,630.739,5023.48Zm0.006,5.26a1.842,1.842,0,0,0,.777-0.16,2.108,2.108,0,0,0,.63-0.43,2,2,0,0,0,.428-0.64,1.862,1.862,0,0,0,.159-0.77,1.979,1.979,0,0,0-.159-0.78,2.072,2.072,0,0,0-.428-0.63,1.938,1.938,0,0,0-.63-0.43,1.967,1.967,0,0,0-1.554,0,1.949,1.949,0,0,0-.63.43,2.055,2.055,0,0,0-.428.63,1.979,1.979,0,0,0-.159.78,1.862,1.862,0,0,0,.159.77,1.986,1.986,0,0,0,.428.64,2.12,2.12,0,0,0,.63.43A1.842,1.842,0,0,0,630.745,5028.74Z" transform="translate(-466 -4964)"/>
</svg>
