<svg id="Layer_1" xmlns="http://www.w3.org/2000/svg" viewBox="0 0 220.5 66.8" height="53"><style>.st0{fill:#00a9ff}.st1{fill:#fff}</style><path class="st0" d="M.4.2h79v66.4H.4z"/><path class="st1" d="M80 .7h139.3v65.4H80z"/><path class="st0" d="M218.7 1.2v64.4H80.5V1.2h138.2m1-1H79.5v66.4h140.3V.2h-.1z"/><path class="st1" d="M30.5 50L18.6 34.2V50H9.5V16.7h9.1v14.9l11-14.9h10.7L27.4 32.4 41.2 50H30.5zm39.9-25.5H60.3V50h-9.1V24.5h-10v-7.9h29.2v7.9z"/><path class="st0" d="M105.7 23.9L98 38.2c-.8 1.5-1.8 2.7-3 3.5-1.2.8-2.4 1.2-3.8 1.2-1 0-2.1-.2-3.3-.7l1.2-3.9c.7.2 1.3.3 1.8.3s1-.1 1.4-.3c.4-.2.8-.6 1.1-1.1l-7.2-13.3h5.5l4.3 8.9 4.5-8.9h5.2zm13.8 18.9l-6.8-9v9h-5.1V23.9h5.1v8.5l6.2-8.5h6.1l-7.3 8.9 7.8 10h-6zm7.7 0V23.9h8.5c2.2 0 4 .6 5.3 1.8 1.3 1.2 2 2.8 2 4.8s-.7 3.6-2.1 4.9c-1.4 1.3-3.2 1.9-5.4 1.9h-3.2v5.5h-5.1zm5.1-14.6v4.9h2.8c.8 0 1.5-.2 2-.7.5-.5.7-1 .7-1.8 0-.7-.2-1.3-.7-1.8-.5-.5-1.2-.7-2-.7h-2.8zm22.3-4.3l7.4 18.9h-5.7l-1.1-3.2h-6.7l-1.1 3.2H142l7.4-18.9h5.2zm-.7 11.6l-1.9-5.7-2 5.7h3.9zm10.2 7.3V23.9h5.3v18.9h-5.3zm0-19.9v-1.3h2.3v1.3h-2.3zm3 0v-1.3h2.3v1.3h-2.3zm38.3 1l7.4 18.9h-5.7l-1.1-3.2h-6.7l-1.1 3.2h-5.4l7.4-18.9h5.2zm-.8 11.6l-1.9-5.7-2 5.7h3.9zm-19.1 7.3v-7.4h-6.8v7.4h-5.1V23.9h5.1v6.9h6.8v-6.9h5.1v18.9h-5.1z"/></svg>