<?xml version="1.0" encoding="utf-8"?>
<!-- Generator: Adobe Illustrator 20.1.0, SVG Export Plug-In . SVG Version: 6.00 Build 0)  -->
<svg version="1.1" id="Шар_1" xmlns="http://www.w3.org/2000/svg" xmlns:xlink="http://www.w3.org/1999/xlink" x="0px" y="0px"
	 viewBox="0 0 716 140.6" style="enable-background:new 0 0 716 140.6;" xml:space="preserve">
<style type="text/css">
	.st0{fill:#FFC830;}
	.st1{fill:#4069BE;}
	.st2{fill:#FFFFFF;}
</style>
<rect class="st0" width="410" height="140.6"/>
<path class="st1" d="M425.7,90.1h21.8c0.8,5.9,3.2,10.2,7.2,13.1c4,2.8,9.7,4.3,17.3,4.3c6.4,0,11.3-1.1,14.5-3.4
	c3.3-2.3,4.9-5.7,4.9-10.1c0-6.5-9.4-11.9-28.1-16.2l-0.7-0.1c-0.5-0.1-1.2-0.3-2.3-0.5c-10-2.2-17.2-4.6-21.4-7.4
	c-3.8-2.4-6.7-5.7-8.7-9.8c-2-4.1-3-9-3-14.5c0-10.4,3.5-18.5,10.6-24c7.1-5.6,17.3-8.3,30.8-8.3c12.5,0,22.3,3,29.4,8.9
	c7.1,5.9,10.8,14.3,11.2,25.1h-21.2c-0.4-5.2-2.4-9.2-6-11.9c-3.6-2.7-8.7-4.1-15.4-4.1c-5.8,0-10.2,1.1-13.4,3.4
	c-3.1,2.3-4.7,5.5-4.7,9.7c0,5.7,6.1,9.9,18.3,12.8c3.3,0.8,5.9,1.4,7.7,1.8c7.8,2,13.4,3.5,16.7,4.7c3.3,1.1,6.1,2.4,8.6,3.7
	c4.4,2.4,7.7,5.7,9.8,9.7c2.2,4,3.3,8.8,3.3,14.4c0,11.2-3.8,19.8-11.3,26c-7.5,6.1-18.2,9.2-31.9,9.2c-13.5,0-24.1-3.1-31.8-9.4
	C430.5,110.6,426.3,101.7,425.7,90.1"/>
<path class="st1" d="M528.9,15.9h21.2v19.3h-21.2V15.9z M528.9,44h21.2v79.2h-21.2V44z"/>
<path class="st1" d="M604.3,123.8c-1.9,0-4.3,0.1-7,0.3c-2.7,0.1-4.4,0.2-5.1,0.2c-8.1,0-13.7-1.5-16.7-4.6c-3-3-4.5-9-4.5-18V58.9
	h-10.5V44H571V22.4h21V44h12.2v14.9H592v43.9c0,2.1,0.5,3.5,1.4,4.1c0.9,0.7,2.8,1,5.7,1h5.2L604.3,123.8L604.3,123.8z"/>
<path class="st1" d="M665.4,99.2h21.1c-2.1,8.4-6.5,14.9-12.9,19.6c-6.5,4.7-14.4,7.1-23.7,7.1c-11.5,0-20.6-3.8-27.3-11.6
	c-6.7-7.7-10.1-18.1-10.1-31.3c0-13,3.3-23.2,9.9-30.7c6.6-7.5,15.6-11.2,27.1-11.2c12.2,0,21.5,3.7,28.1,11
	c6.6,7.4,9.9,17.9,9.9,31.5c0,1.5,0,2.6,0,3.4c0,0.8-0.1,1.5-0.2,2.1h-52.9c0.3,6.2,1.8,10.9,4.6,14.1c2.7,3.2,6.7,4.7,11.8,4.7
	c3.6,0,6.6-0.7,9-2.2C662.2,104.4,664,102.2,665.4,99.2 M634.5,75.3h31.2c-0.2-5.3-1.6-9.4-4.3-12.2c-2.7-2.8-6.5-4.2-11.4-4.2
	c-4.6,0-8.2,1.4-10.9,4.2C636.4,65.9,634.9,70,634.5,75.3"/>
<path class="st2" d="M300.7,94.1c0,14.1-5.3,23.5-16,28.1c-4.4,1.9-9.9,2.9-16.3,2.9c-12.6,0-21.7-3.9-27.1-11.6
	c-3.5-4.9-5.2-11.4-5.2-19.4V46h21.5v43c0,4.7,0.9,8.2,2.7,10.5c2,2.4,4.7,3.6,8.1,3.6c3.4,0,6.1-1.2,8.1-3.6
	c1.8-2.2,2.7-5.7,2.7-10.5V46h21.5V94.1z"/>
<polygon class="st2" points="155.3,122.5 155.3,13 177.4,13 177.4,102.3 229.8,102.3 229.8,122.5 "/>
<polygon class="st2" points="305.4,125.1 332.1,84.6 306.6,45.8 330.8,45.8 344.8,69.7 358.7,45.8 382.1,45.8 357.2,84.3 
	383.6,125.1 358.8,125.1 344.2,100 329.8,125.1 "/>
</svg>
