<?xml version="1.0" encoding="utf-8"?>
<!-- Generator: Adobe Illustrator 20.0.0, SVG Export Plug-In . SVG Version: 6.00 Build 0)  -->
<svg version="1.1" id="Capa_1" xmlns="http://www.w3.org/2000/svg" xmlns:xlink="http://www.w3.org/1999/xlink" x="0px" y="0px"
	 viewBox="0 0 19.25 20" style="enable-background:new 0 0 19.25 20;" xml:space="preserve" fill="#4069be">
<rect x="11.467041" y="1.999874" width="5.782959" height="2.0666504"/>
<rect x="1.8752441" y="1.999874" width="6.5622559" height="2.0666504"/>
<rect x="1.8752441" y="15.4998741" width="15.3729858" height="2.0666504"/>
<rect x="13.3251953" y="3.8580284" transform="matrix(-1.836970e-16 1 -1 -1.836970e-16 21.1080284 -11.3253212)" width="5.782959" height="2.0666504"/>
<rect x="-4.8847046" y="8.7554283" transform="matrix(-1.836970e-16 1 -1 -1.836970e-16 12.6929283 6.8845787)" width="15.5777588" height="2.0666504"/>
<rect x="13.3251953" y="12.8736534" transform="matrix(-1.836970e-16 1 -1 -1.836970e-16 30.1236534 -2.3096962)" width="5.782959" height="2.0666504"/>
<rect x="8.6189985" y="5.5995297" transform="matrix(-0.7071068 0.7071068 -0.7071068 -0.7071068 26.733448 2.192353)" width="8.5873489" height="2.0666504"/>
</svg>
